<svg xmlns="http://www.w3.org/2000/svg" xmlns:xlink="http://www.w3.org/1999/xlink" width="39" height="36" viewBox="0 0 39 36"><defs><path id="wgv2a" d="M72.868 22.405a.833.833 0 0 0-1.126-.296l-13.494 7.646a.804.804 0 0 0-.395.863l4.58 21.97-.683.757c-1.147 1.27-2.119 1.958-3.966 1.958-2.07 0-3.043-1.071-4.583-2.965-1.839-2.262-4.127-5.076-9.69-5.076h-.137c-.759 0-1.374.604-1.374 1.348 0 .745.615 1.349 1.374 1.349h.137c4.24 0 5.844 1.972 7.543 4.06C52.57 55.887 54.29 58 57.784 58c3.017 0 4.678-1.377 6.022-2.865l4.96-5.49L80.562 36.59a.797.797 0 0 0 .097-.942z"/><linearGradient id="wgv2b" x1="61.38" x2="61.38" y1="22" y2="58" gradientUnits="userSpaceOnUse"><stop offset="0" stop-color="#f80"/><stop offset="1" stop-color="#f60"/></linearGradient></defs><g><g transform="translate(-42 -22)"><use fill="url(#wgv2b)" xlink:href="#wgv2a"/></g></g></svg>